<?xml version="1.0" encoding="UTF-8" standalone="no"?>
<svg
   height="16"
   width="16"
   version="1.1"
   id="svg192"
   sodipodi:docname="shortcuts.svg"
   inkscape:version="1.1 (c68e22c387, 2021-05-23)"
   xmlns:inkscape="http://www.inkscape.org/namespaces/inkscape"
   xmlns:sodipodi="http://sodipodi.sourceforge.net/DTD/sodipodi-0.dtd"
   xmlns="http://www.w3.org/2000/svg"
   xmlns:svg="http://www.w3.org/2000/svg">
  <defs
     id="defs196" />
  <sodipodi:namedview
     id="namedview194"
     pagecolor="#ffffff"
     bordercolor="#111111"
     borderopacity="0.30196078"
     inkscape:pageshadow="0"
     inkscape:pageopacity="0"
     inkscape:pagecheckerboard="false"
     showgrid="true"
     inkscape:zoom="61.854008"
     inkscape:cx="6.2647517"
     inkscape:cy="7.2024435"
     inkscape:window-width="2048"
     inkscape:window-height="1091"
     inkscape:window-x="0"
     inkscape:window-y="30"
     inkscape:window-maximized="1"
     inkscape:current-layer="svg192"
     showborder="true"
     borderlayer="true">
    <inkscape:grid
       type="xygrid"
       id="grid278"
       empspacing="2"
       spacingx="0.5"
       spacingy="0.5"
       color="#3f3fff"
       opacity="0.07843137" />
  </sodipodi:namedview>
  <path
     d="M 5.0000005,13 C 6.1320758,13 6.995283,12.127358 7,11 v -1 h 2 v 1 c -0.00471,1.127358 0.8679238,2 2,2 1.127358,0 2,-0.872642 2,-2 C 13,9.8679248 12.127358,9.0047169 11,9 H 10 V 7 h 1 C 12.127358,7.00471 13,6.1317459 13,4.9996706 13,3.8723122 12.127358,3 11,3 9.8679238,3 8.9952829,3.8726416 9,5 V 6 H 7 V 5 C 6.995283,3.8726416 6.1320758,3 5.0000005,3 3.8726423,3 3,3.8726426 3,5.000001 3,6.1320763 3.8726418,7.0047169 5,7 H 6 V 9 H 5 c -1.1273582,0.00472 -2,0.8679248 -2,2 0,1.127358 0.8726423,2 2.0000005,2 z M 5,6 C 4.4009436,6.0047203 4,5.6037734 4,5 4,4.4009435 4.4009436,4 5,4 5.6037735,4 5.995283,4.4009435 6,5 v 1 z m 5,0 V 5 c -0.00472,-0.5990565 0.396226,-1 1,-1 0.599056,0 1,0.4009435 1,1 0,0.6037734 -0.400944,1.0047169 -1,1 z M 7,9 V 7 H 9 V 9 Z M 5.0000005,12 C 4.4009441,12 4,11.599056 4,11 4,10.396227 4.4009436,10.004718 5,10 h 1 v 1 C 5.99528,11.599056 5.603774,12 5.0000005,12 Z M 11,12 c -0.603774,0 -1.0047167,-0.400944 -1,-1 v -1 h 1 c 0.599056,0.0047 1,0.396227 1,1 0,0.599056 -0.400944,1 -1,1 z"
     style="font-size:18.4224px;line-height:1.25;font-family:Inter;-inkscape-font-specification:Inter;fill:#666666;stroke-width:0.767601"
     id="path6025"
     sodipodi:nodetypes="sccccssccccssccccssccccsscsscccccsscccccccsscccsscccss" />
</svg>
