<?xml version="1.0" encoding="UTF-8" standalone="no"?>
<svg
   height="16"
   width="16"
   version="1.1"
   id="svg192"
   sodipodi:docname="shortcuts.svg"
   inkscape:version="1.1 (c68e22c387, 2021-05-23)"
   xmlns:inkscape="http://www.inkscape.org/namespaces/inkscape"
   xmlns:sodipodi="http://sodipodi.sourceforge.net/DTD/sodipodi-0.dtd"
   xmlns="http://www.w3.org/2000/svg"
   xmlns:svg="http://www.w3.org/2000/svg">
  <defs
     id="defs196" />
  <sodipodi:namedview
     id="namedview194"
     pagecolor="#ffffff"
     bordercolor="#111111"
     borderopacity="0.30196078"
     inkscape:pageshadow="0"
     inkscape:pageopacity="0"
     inkscape:pagecheckerboard="false"
     showgrid="true"
     inkscape:zoom="45.254834"
     inkscape:cx="4.5851455"
     inkscape:cy="9.7116697"
     inkscape:window-width="2048"
     inkscape:window-height="1091"
     inkscape:window-x="0"
     inkscape:window-y="30"
     inkscape:window-maximized="1"
     inkscape:current-layer="text16284"
     showborder="true"
     borderlayer="true"
     inkscape:lockguides="false">
    <inkscape:grid
       type="xygrid"
       id="grid278"
       empspacing="2"
       spacingx="0.5"
       spacingy="0.5"
       color="#3f3fff"
       opacity="0.07843137" />
  </sodipodi:namedview>
  <g
     aria-label="⌘"
     transform="scale(0.9997663,1.0002338)"
     id="text16284"
     style="font-size:18.4526px;line-height:1.25;font-family:inter;-inkscape-font-specification:inter;stroke-width:0.999992">
    <path
       d="m 4.000935,14.996494 c 1.7889062,0 2.9941485,-1.223498 3.0007013,-2.999299 v -0.999766 h 2.0004675 v 0.999766 c -0.00655,1.775801 1.2183482,2.999299 3.0007012,2.999299 1.782354,0 3.000701,-1.223498 3.000701,-2.999299 0,-1.788906 -1.218347,-2.9927459 -3.000701,-2.9992987 H 11.002571 V 6.9983638 h 1.127076 c 1.782354,0.00655 2.873859,-1.2169453 2.873859,-2.9992988 0,-1.7823534 -1.218347,-2.99929875 -3.000701,-2.99929875 -1.782353,0 -3.007254,1.21694535 -3.0007012,2.99929875 V 4.9988313 H 7.0016363 V 3.999065 C 6.9950835,2.2167116 5.7898412,0.99976625 4.000935,0.99976625 c -1.7758007,0 -3.0007012,1.21694535 -3.0007012,2.99929875 0,1.7823535 1.0849523,3.0058515 2.860753,2.9992988 h 1.140182 V 8.9978963 H 4.000935 c -1.7758007,0.00655 -3.0007012,1.2103927 -3.0007012,2.9992987 0,1.775801 1.2249005,2.999299 3.0007012,2.999299 z m 0,-9.9976627 C 3.3784218,5.005384 3.0007013,4.6281309 3.0007013,3.999065 c 0,-0.6225131 0.3777205,-0.9997662 1.0002337,-0.9997662 0.6290659,0 0.993681,0.3772531 1.0002338,0.9997662 v 0.9997663 z m 7.001636,0 V 3.999065 c -0.0066,-0.6225131 0.371164,-0.9997662 1.000234,-0.9997662 0.622514,0 1.000234,0.3772531 1.000234,0.9997662 0,0.6290659 -0.377723,1.006319 -1.000234,0.9997663 z M 7.0016363,8.9978963 V 6.9983638 H 9.0021038 V 8.9978963 Z M 4.000935,12.996961 c -0.6225132,0 -1.0002337,-0.377252 -1.0002337,-0.999766 0,-0.629066 0.3777205,-0.993213 1.0002337,-0.999766 h 1.0002338 v 0.999766 c -0.00655,0.622514 -0.3711679,0.999766 -1.0002338,0.999766 z m 8.00187,2e-6 c -0.629065,0 -1.006787,-0.377252 -1.000234,-0.999766 v -0.999766 h 1.127076 c 0.622514,0.0066 0.873392,0.3707 0.873392,0.999766 0,0.622514 -0.37772,0.999766 -1.000234,0.999766 z"
       style="font-weight:900;font-family:Inter;-inkscape-font-specification:'Inter Heavy';fill:#666666"
       id="path30836"
       sodipodi:nodetypes="sccccssccccssccccssccccsscsscccccsscccccccsscccsscccss" />
  </g>
</svg>
