<?xml version="1.0" encoding="UTF-8" standalone="no"?>
<svg
   height="16"
   width="16"
   version="1.1"
   id="svg192"
   sodipodi:docname="workspaces-symbolic-three-alt.svg"
   inkscape:version="1.1 (c68e22c387, 2021-05-23)"
   xmlns:inkscape="http://www.inkscape.org/namespaces/inkscape"
   xmlns:sodipodi="http://sodipodi.sourceforge.net/DTD/sodipodi-0.dtd"
   xmlns="http://www.w3.org/2000/svg"
   xmlns:svg="http://www.w3.org/2000/svg">
  <defs
     id="defs196" />
  <sodipodi:namedview
     id="namedview194"
     pagecolor="#ffffff"
     bordercolor="#111111"
     borderopacity="0.30196078"
     inkscape:pageshadow="0"
     inkscape:pageopacity="0"
     inkscape:pagecheckerboard="false"
     showgrid="true"
     inkscape:zoom="32.003653"
     inkscape:cx="-1.9372788"
     inkscape:cy="10.20196"
     inkscape:window-width="2048"
     inkscape:window-height="1031"
     inkscape:window-x="0"
     inkscape:window-y="90"
     inkscape:window-maximized="1"
     inkscape:current-layer="svg192"
     showborder="true"
     borderlayer="true">
    <inkscape:grid
       type="xygrid"
       id="grid278"
       empspacing="2"
       spacingx="0.5"
       spacingy="0.5"
       color="#3f3fff"
       opacity="0.07843137" />
  </sodipodi:namedview>
  <path
     id="rect5013"
     style="opacity:0.3;fill:#666666;stroke-linecap:round"
     d="m 3,3 h 10 v 8 H 3 Z"
     sodipodi:nodetypes="ccccc" />
  <path
     style="color:#000000;opacity:1;fill:#666666;fill-rule:evenodd;stroke-width:0.999992;-inkscape-stroke:none"
     d="M 0,2 V 12 H 0.5 C 0.77699997,12 1,11.777 1,11.5 v -9 C 1,2.223 0.77699997,2 0.5,2 Z"
     id="rect582-6"
     sodipodi:nodetypes="ccssssc" />
  <path
     style="color:#000000;opacity:1;fill:#666666;fill-rule:evenodd;stroke-width:0.999992;-inkscape-stroke:none"
     d="M 16,2 V 12 H 15.5 C 15.223,12 15,11.777 15,11.5 v -9 C 15,2.223 15.223,2 15.5,2 Z"
     id="rect582-6-7"
     sodipodi:nodetypes="ccssssc" />
  <path
     style="color:#000000;fill:#666666;fill-rule:evenodd;-inkscape-stroke:none"
     d="M 2.625,2 C 2.2874019,2 2,2.2874019 2,2.625 v 8.75 C 2,11.712598 2.2874019,12 2.625,12 h 10.75 C 13.712598,12 14,11.712598 14,11.375 V 2.625 C 14,2.2874019 13.712598,2 13.375,2 Z M 3,3 h 10 v 8 H 3 Z"
     id="rect582"
     sodipodi:nodetypes="sssssssssccccc" />
  <g
     id="g2584"
     style="opacity:1"
     transform="translate(0,1)">
    <rect
       style="fill:#666666;fill-rule:evenodd;stroke-width:0.666667"
       id="rect1705"
       width="2"
       height="2"
       x="3"
       y="12"
       ry="0.33333334" />
    <rect
       style="fill:#666666;fill-rule:evenodd;stroke-width:0.666667"
       id="rect1825"
       width="2"
       height="2"
       x="7"
       y="12"
       ry="0.33333334" />
    <rect
       style="fill:#666666;fill-rule:evenodd;stroke-width:0.666667"
       id="rect2009"
       width="2"
       height="2"
       x="11"
       y="12"
       ry="0.33333334" />
  </g>
</svg>
